<svg id="グループ_4681" data-name="グループ 4681" xmlns="http://www.w3.org/2000/svg" width="225.939" height="70.093" viewBox="0 0 225.939 70.093">
  <g id="グループ_1" data-name="グループ 1">
    <path id="パス_1" data-name="パス 1" d="M141.284,778.943q-1.721,0-3.434.168t-3.4.505q-1.689.336-3.336.836t-3.239,1.159q-1.59.659-3.109,1.47t-2.949,1.769q-1.432.957-2.764,2.049t-2.548,2.309q-1.216,1.218-2.309,2.55t-2.049,2.762q-.957,1.432-1.769,2.949t-1.47,3.109q-.659,1.592-1.159,3.239t-.836,3.336q-.336,1.689-.505,3.4t-.168,3.434q0,1.723.168,3.436t.505,3.4q.336,1.688.836,3.337t1.159,3.237q.659,1.592,1.47,3.109t1.769,2.95q.957,1.432,2.049,2.762t2.309,2.548q1.218,1.218,2.548,2.31t2.764,2.049q1.432.957,2.949,1.768t3.109,1.471q1.592.659,3.239,1.159t3.336.836q1.689.336,3.4.5t3.434.17q1.723,0,3.436-.17t3.4-.5q1.689-.336,3.337-.836t3.237-1.159q1.59-.659,3.109-1.471t2.951-1.768q1.432-.957,2.762-2.049t2.548-2.31q1.218-1.218,2.31-2.548t2.049-2.762q.957-1.432,1.768-2.95t1.471-3.109q.659-1.59,1.159-3.237t.836-3.337q.336-1.689.5-3.4t.17-3.436q0-1.721-.17-3.434t-.5-3.4q-.336-1.689-.836-3.336t-1.159-3.239q-.659-1.59-1.471-3.109t-1.768-2.949q-.957-1.432-2.049-2.762t-2.31-2.55q-1.218-1.216-2.548-2.309t-2.762-2.049q-1.432-.957-2.951-1.769t-3.109-1.47q-1.59-.659-3.237-1.159t-3.337-.836q-1.689-.336-3.4-.505T141.284,778.943Z" transform="translate(-106.238 -778.943)" fill="#fff"/>
    <path id="パス_2" data-name="パス 2" d="M156.42,820.71,127.8,803.572l3.348-5.462,28.617,17.136Z" transform="translate(-97.036 -770.763)" fill="#907452"/>
    <path id="パス_3" data-name="パス 3" d="M126.845,789.814l-2.237,3.651v0l-2.732-1.631-3.353,5.47,2.728,1.631.009,0-10.067,16.433A30.061,30.061,0,0,0,134.01,818.7a8.429,8.429,0,0,1-2.8-11.667l6.546-10.685Z" transform="translate(-104.123 -774.304)" fill="#907452"/>
  </g>
  <g id="グループ_2" data-name="グループ 2" transform="translate(88.259 24.473)">
    <path id="パス_4" data-name="パス 4" d="M182.747,796.1a1.021,1.021,0,0,0-1.017,1.017V828.04a1.8,1.8,0,0,1-2.035,2.035H177.05a1.8,1.8,0,0,1-2.035-2.035V797.113A1.021,1.021,0,0,0,174,796.1h-4.884a1.021,1.021,0,0,0-1.017,1.017v32.351c0,4.783,2.544,7.325,7.325,7.325h5.7c4.781,0,7.325-2.542,7.325-7.325V797.113a1.021,1.021,0,0,0-1.017-1.017Z" transform="translate(-168.097 -796.096)" fill="#fff"/>
    <path id="パス_5" data-name="パス 5" d="M201.751,816.443V802.81h5.035a1.827,1.827,0,0,1,2.036,2.035v9.564a1.827,1.827,0,0,1-2.036,2.035Zm13.988-13.022c0-4.781-2.544-7.325-7.325-7.325H195.648a.749.749,0,0,0-.815.815v39.065a.749.749,0,0,0,.815.813h5.29a.748.748,0,0,0,.813-.813V823.158h3.51l3.409,12.919a.8.8,0,0,0,.865.712h5.289c.559,0,.865-.305.712-.916l-3.508-13.326c2.441-1.069,3.712-3.306,3.712-6.714Z" transform="translate(-156.687 -796.096)" fill="#fff"/>
    <path id="パス_6" data-name="パス 6" d="M236.611,796.1a1.021,1.021,0,0,0-1.017,1.017V828.04a1.8,1.8,0,0,1-2.035,2.035h-2.645a1.805,1.805,0,0,1-2.035-2.035V797.113a1.02,1.02,0,0,0-1.017-1.017h-4.882a1.021,1.021,0,0,0-1.017,1.017v32.351c0,4.783,2.543,7.325,7.325,7.325h5.7c4.781,0,7.324-2.542,7.324-7.325V797.113a1.021,1.021,0,0,0-1.017-1.017Z" transform="translate(-145.109 -796.096)" fill="#fff"/>
    <path id="パス_7" data-name="パス 7" d="M270.469,836.789c.813,0,1.119-.508.763-1.17l-9.207-20.55,8.646-17.752c.357-.712.051-1.221-.712-1.221h-5.34a1.209,1.209,0,0,0-1.17.763l-7.833,16.022V797.113A.914.914,0,0,0,254.6,796.1h-4.884a.914.914,0,0,0-1.017,1.017v38.658a.913.913,0,0,0,1.017,1.017H254.6a.913.913,0,0,0,1.017-1.017V824.53l1.882-3.611,6.409,15.107a1.122,1.122,0,0,0,1.17.763Z" transform="translate(-133.699 -796.096)" fill="#fff"/>
  </g>
  <g id="グループ_18" data-name="グループ 18" transform="translate(88.259 4.927)">
    <g id="グループ_3" data-name="グループ 3">
      <path id="パス_8" data-name="パス 8" d="M177.267,787.151a5.36,5.36,0,0,1-.331,1.919,4.388,4.388,0,0,1-.935,1.5,4.164,4.164,0,0,1-1.45.976,5.218,5.218,0,0,1-3.741,0,4.172,4.172,0,0,1-1.448-.976,4.409,4.409,0,0,1-.935-1.5,5.724,5.724,0,0,1,0-3.836,4.429,4.429,0,0,1,.935-1.5,4.194,4.194,0,0,1,1.448-.985,5.18,5.18,0,0,1,3.741,0,4.186,4.186,0,0,1,1.45.985,4.408,4.408,0,0,1,.935,1.5A5.369,5.369,0,0,1,177.267,787.151Zm-1.291,0a4.728,4.728,0,0,0-.234-1.537,3.25,3.25,0,0,0-.661-1.153,2.9,2.9,0,0,0-1.039-.723,3.786,3.786,0,0,0-2.719,0,2.907,2.907,0,0,0-1.042.723,3.215,3.215,0,0,0-.665,1.153,5.163,5.163,0,0,0,0,3.073,3.212,3.212,0,0,0,.665,1.147,2.845,2.845,0,0,0,1.042.721,3.805,3.805,0,0,0,2.719,0,2.835,2.835,0,0,0,1.039-.721,3.247,3.247,0,0,0,.661-1.147A4.717,4.717,0,0,0,175.976,787.151Z" transform="translate(-168.097 -782.396)" fill="#fff"/>
    </g>
    <g id="グループ_4" data-name="グループ 4" transform="translate(10.831 0.103)">
      <path id="パス_9" data-name="パス 9" d="M179.393,790.769a2.606,2.606,0,0,0,1.033-.194,2.194,2.194,0,0,0,.769-.545,2.387,2.387,0,0,0,.479-.837,3.33,3.33,0,0,0,.165-1.072v-5.653h1.253v5.653a4.23,4.23,0,0,1-.257,1.492,3.443,3.443,0,0,1-.733,1.191,3.347,3.347,0,0,1-1.164.788,4.323,4.323,0,0,1-3.089,0,3.392,3.392,0,0,1-1.169-.788,3.45,3.45,0,0,1-.736-1.191,4.23,4.23,0,0,1-.257-1.492v-5.653h1.253v5.646a3.324,3.324,0,0,0,.166,1.072,2.378,2.378,0,0,0,.481.837,2.172,2.172,0,0,0,.772.548A2.568,2.568,0,0,0,179.393,790.769Z" transform="translate(-175.688 -782.468)" fill="#fff"/>
    </g>
    <g id="グループ_5" data-name="グループ 5" transform="translate(19.52 0.103)">
      <path id="パス_10" data-name="パス 10" d="M189.06,782.468v1.059h-3v8.241H184.8v-8.241h-3.018v-1.059Z" transform="translate(-181.778 -782.468)" fill="#fff"/>
    </g>
    <g id="グループ_6" data-name="グループ 6" transform="translate(28.13 0.103)">
      <path id="パス_11" data-name="パス 11" d="M195.873,787.121a5.224,5.224,0,0,1-.331,1.9,4.088,4.088,0,0,1-2.381,2.411,5.039,5.039,0,0,1-1.869.334h-3.478v-9.3h3.478a5.011,5.011,0,0,1,1.869.335,4.139,4.139,0,0,1,1.448.947,4.243,4.243,0,0,1,.933,1.47A5.231,5.231,0,0,1,195.873,787.121Zm-1.291,0a4.676,4.676,0,0,0-.233-1.531,3.245,3.245,0,0,0-.662-1.141,2.839,2.839,0,0,0-1.039-.715,3.6,3.6,0,0,0-1.357-.247h-2.213v7.264h2.213a3.621,3.621,0,0,0,1.357-.247,2.867,2.867,0,0,0,1.039-.712,3.2,3.2,0,0,0,.662-1.139A4.671,4.671,0,0,0,194.582,787.121Z" transform="translate(-187.813 -782.468)" fill="#fff"/>
    </g>
    <g id="グループ_7" data-name="グループ 7" transform="translate(37.468)">
      <path id="パス_12" data-name="パス 12" d="M203.528,787.151a5.36,5.36,0,0,1-.331,1.919,4.387,4.387,0,0,1-.935,1.5,4.178,4.178,0,0,1-1.45.976,5.222,5.222,0,0,1-3.742,0,4.18,4.18,0,0,1-1.447-.976,4.409,4.409,0,0,1-.935-1.5,5.724,5.724,0,0,1,0-3.836,4.43,4.43,0,0,1,.935-1.5,4.2,4.2,0,0,1,1.447-.985,5.183,5.183,0,0,1,3.742,0,4.2,4.2,0,0,1,1.45.985,4.408,4.408,0,0,1,.935,1.5A5.369,5.369,0,0,1,203.528,787.151Zm-1.291,0a4.728,4.728,0,0,0-.234-1.537,3.252,3.252,0,0,0-.662-1.153,2.878,2.878,0,0,0-1.037-.723,3.786,3.786,0,0,0-2.719,0,2.907,2.907,0,0,0-1.042.723,3.214,3.214,0,0,0-.665,1.153,5.162,5.162,0,0,0,0,3.073,3.212,3.212,0,0,0,.665,1.147,2.845,2.845,0,0,0,1.042.721,3.805,3.805,0,0,0,2.719,0,2.817,2.817,0,0,0,1.037-.721,3.25,3.25,0,0,0,.662-1.147A4.717,4.717,0,0,0,202.237,787.151Z" transform="translate(-194.358 -782.396)" fill="#fff"/>
    </g>
    <g id="グループ_8" data-name="グループ 8" transform="translate(47.857)">
      <path id="パス_13" data-name="パス 13" d="M210.809,787.151a5.359,5.359,0,0,1-.331,1.919,4.384,4.384,0,0,1-.933,1.5,4.17,4.17,0,0,1-1.451.976,5.218,5.218,0,0,1-3.741,0,4.18,4.18,0,0,1-1.447-.976,4.392,4.392,0,0,1-.936-1.5,5.724,5.724,0,0,1,0-3.836,4.412,4.412,0,0,1,.936-1.5,4.2,4.2,0,0,1,1.447-.985,5.179,5.179,0,0,1,3.741,0,4.192,4.192,0,0,1,1.451.985,4.4,4.4,0,0,1,.933,1.5A5.368,5.368,0,0,1,210.809,787.151Zm-1.291,0a4.729,4.729,0,0,0-.233-1.537,3.274,3.274,0,0,0-.662-1.153,2.9,2.9,0,0,0-1.039-.723,3.786,3.786,0,0,0-2.719,0,2.919,2.919,0,0,0-1.042.723,3.215,3.215,0,0,0-.665,1.153,5.163,5.163,0,0,0,0,3.073,3.212,3.212,0,0,0,.665,1.147,2.857,2.857,0,0,0,1.042.721,3.805,3.805,0,0,0,2.719,0,2.834,2.834,0,0,0,1.039-.721,3.271,3.271,0,0,0,.662-1.147A4.717,4.717,0,0,0,209.518,787.151Z" transform="translate(-201.639 -782.396)" fill="#fff"/>
    </g>
    <g id="グループ_9" data-name="グループ 9" transform="translate(58.908 0.103)">
      <path id="パス_14" data-name="パス 14" d="M210.638,787.887v3.881h-1.253v-9.3h2.628a5.7,5.7,0,0,1,1.525.18,2.925,2.925,0,0,1,1.062.515,2.074,2.074,0,0,1,.619.815,2.726,2.726,0,0,1,.2,1.067,2.666,2.666,0,0,1-.156.922,2.421,2.421,0,0,1-.451.769,2.69,2.69,0,0,1-.721.581,3.545,3.545,0,0,1-.963.364,1.324,1.324,0,0,1,.415.4l2.712,3.692h-1.116a.549.549,0,0,1-.506-.267l-2.414-3.322a.707.707,0,0,0-.241-.224.875.875,0,0,0-.388-.068Zm0-.915h1.317a3.208,3.208,0,0,0,.97-.133,1.965,1.965,0,0,0,.7-.377,1.561,1.561,0,0,0,.424-.581,1.891,1.891,0,0,0,.143-.746,1.477,1.477,0,0,0-.548-1.253,2.652,2.652,0,0,0-1.632-.422h-1.375Z" transform="translate(-209.385 -782.468)" fill="#fff"/>
    </g>
    <g id="グループ_10" data-name="グループ 10" transform="translate(69.479)">
      <path id="パス_15" data-name="パス 15" d="M222.31,783.953a.5.5,0,0,1-.123.147.271.271,0,0,1-.168.048.446.446,0,0,1-.257-.111,4.079,4.079,0,0,0-.37-.243,2.984,2.984,0,0,0-.539-.244,2.336,2.336,0,0,0-.763-.11,2.211,2.211,0,0,0-.745.114,1.582,1.582,0,0,0-.542.307,1.3,1.3,0,0,0-.328.458,1.438,1.438,0,0,0-.11.568,1.055,1.055,0,0,0,.191.646,1.656,1.656,0,0,0,.507.438,3.78,3.78,0,0,0,.713.314q.4.133.818.277c.28.1.552.2.819.321a2.884,2.884,0,0,1,.713.451,2.053,2.053,0,0,1,.505.668,2.217,2.217,0,0,1,.193.974,3.135,3.135,0,0,1-.208,1.144,2.641,2.641,0,0,1-.606.932,2.834,2.834,0,0,1-.98.624,3.606,3.606,0,0,1-1.32.227,4.063,4.063,0,0,1-1.646-.327,3.866,3.866,0,0,1-1.268-.886l.364-.6a.484.484,0,0,1,.127-.12.289.289,0,0,1,.166-.049.519.519,0,0,1,.311.146c.117.1.263.206.437.323a3.4,3.4,0,0,0,.636.32,2.493,2.493,0,0,0,.913.147,2.422,2.422,0,0,0,.8-.123,1.7,1.7,0,0,0,.595-.348,1.519,1.519,0,0,0,.372-.535,1.784,1.784,0,0,0,.13-.695,1.169,1.169,0,0,0-.191-.691,1.628,1.628,0,0,0-.5-.452,3.568,3.568,0,0,0-.711-.307l-.818-.26a8.028,8.028,0,0,1-.818-.31,2.616,2.616,0,0,1-.711-.454,2.08,2.08,0,0,1-.5-.7,2.547,2.547,0,0,1,.555-2.807,2.69,2.69,0,0,1,.9-.572,3.3,3.3,0,0,1,1.23-.213,3.972,3.972,0,0,1,1.421.245,3.289,3.289,0,0,1,1.123.715Z" transform="translate(-216.794 -782.396)" fill="#fff"/>
    </g>
    <g id="グループ_11" data-name="グループ 11" transform="translate(76.325 0.103)">
      <path id="パス_16" data-name="パス 16" d="M228.873,782.468v1.059h-3v8.241h-1.26v-8.241h-3.018v-1.059Z" transform="translate(-221.592 -782.468)" fill="#fff"/>
    </g>
    <g id="グループ_12" data-name="グループ 12" transform="translate(83.871 0.103)">
      <path id="パス_17" data-name="パス 17" d="M235.6,791.768h-.973a.415.415,0,0,1-.272-.084.5.5,0,0,1-.156-.214l-.869-2.246h-4.173l-.87,2.246a.488.488,0,0,1-.156.207.414.414,0,0,1-.273.091h-.974l3.72-9.3h1.278Zm-6.094-3.453h3.473l-1.461-3.782a7.387,7.387,0,0,1-.28-.876c-.047.177-.093.341-.138.491s-.09.278-.134.391Z" transform="translate(-226.881 -782.468)" fill="#fff"/>
    </g>
    <g id="グループ_13" data-name="グループ 13" transform="translate(93.723 0.103)">
      <path id="パス_18" data-name="パス 18" d="M234.683,782.511a.652.652,0,0,1,.187.171l5.386,7.01c-.013-.113-.023-.223-.026-.328s-.007-.208-.007-.308v-6.587h1.1v9.3h-.636a.548.548,0,0,1-.25-.051.611.611,0,0,1-.2-.175l-5.38-7c.009.108.014.215.02.318s.006.2.006.287v6.624h-1.1v-9.3h.649A.549.549,0,0,1,234.683,782.511Z" transform="translate(-233.786 -782.468)" fill="#fff"/>
    </g>
    <g id="グループ_14" data-name="グループ 14" transform="translate(103.632 0.103)">
      <path id="パス_19" data-name="パス 19" d="M248.791,787.121a5.253,5.253,0,0,1-.331,1.9,4.218,4.218,0,0,1-.936,1.468,4.165,4.165,0,0,1-1.445.943,5.046,5.046,0,0,1-1.871.334h-3.477v-9.3h3.477a5.018,5.018,0,0,1,1.871.335,4.115,4.115,0,0,1,1.445.947,4.25,4.25,0,0,1,.936,1.47A5.261,5.261,0,0,1,248.791,787.121Zm-1.293,0a4.677,4.677,0,0,0-.233-1.531,3.224,3.224,0,0,0-.662-1.141,2.827,2.827,0,0,0-1.039-.715,3.6,3.6,0,0,0-1.357-.247H242v7.264h2.212a3.621,3.621,0,0,0,1.357-.247,2.854,2.854,0,0,0,1.039-.712,3.175,3.175,0,0,0,.662-1.139A4.673,4.673,0,0,0,247.5,787.121Z" transform="translate(-240.731 -782.468)" fill="#fff"/>
    </g>
    <g id="グループ_15" data-name="グループ 15" transform="translate(113.502 0.103)">
      <path id="パス_20" data-name="パス 20" d="M247.649,791.768v-9.3h2.965a5.729,5.729,0,0,1,1.477.168,2.889,2.889,0,0,1,1.019.481,1.9,1.9,0,0,1,.591.763,2.583,2.583,0,0,1,.191,1.016,2.069,2.069,0,0,1-.107.662,1.968,1.968,0,0,1-.324.591,2.327,2.327,0,0,1-.546.486,3.093,3.093,0,0,1-.768.349,2.869,2.869,0,0,1,1.537.734,1.92,1.92,0,0,1,.519,1.4,2.632,2.632,0,0,1-.217,1.077,2.3,2.3,0,0,1-.636.836,2.94,2.94,0,0,1-1.026.542,4.618,4.618,0,0,1-1.385.191Zm1.258-5.132h1.661a3.262,3.262,0,0,0,.922-.117,1.884,1.884,0,0,0,.645-.324,1.273,1.273,0,0,0,.381-.5,1.678,1.678,0,0,0,.124-.646,1.426,1.426,0,0,0-.494-1.2,2.5,2.5,0,0,0-1.532-.384h-1.706Zm0,.895v3.239h2.012a3.08,3.08,0,0,0,.925-.123,1.726,1.726,0,0,0,.636-.348,1.343,1.343,0,0,0,.367-.532,1.884,1.884,0,0,0,.117-.678,1.392,1.392,0,0,0-.511-1.138,2.382,2.382,0,0,0-1.541-.419Z" transform="translate(-247.649 -782.468)" fill="#fff"/>
    </g>
    <g id="グループ_16" data-name="グループ 16" transform="translate(120.826 0.103)">
      <path id="パス_21" data-name="パス 21" d="M261.5,791.768h-.973a.415.415,0,0,1-.273-.084.5.5,0,0,1-.156-.214l-.869-2.246h-4.173l-.87,2.246a.488.488,0,0,1-.156.207.414.414,0,0,1-.273.091h-.974l3.72-9.3h1.278Zm-6.092-3.453h3.471l-1.461-3.782a7.387,7.387,0,0,1-.28-.876c-.046.177-.093.341-.138.491s-.09.278-.134.391Z" transform="translate(-252.782 -782.468)" fill="#fff"/>
    </g>
    <g id="グループ_17" data-name="グループ 17" transform="translate(130.808 0.103)">
      <path id="パス_22" data-name="パス 22" d="M261.031,787.887v3.881h-1.253v-9.3h2.628a5.708,5.708,0,0,1,1.525.18,2.907,2.907,0,0,1,1.06.515,2.064,2.064,0,0,1,.621.815,2.726,2.726,0,0,1,.2,1.067,2.665,2.665,0,0,1-.156.922,2.425,2.425,0,0,1-.452.769,2.683,2.683,0,0,1-.719.581,3.555,3.555,0,0,1-.964.364,1.31,1.31,0,0,1,.415.4l2.714,3.692h-1.117a.546.546,0,0,1-.505-.267l-2.415-3.322a.692.692,0,0,0-.24-.224.875.875,0,0,0-.388-.068Zm0-.915h1.317a3.209,3.209,0,0,0,.97-.133,1.966,1.966,0,0,0,.7-.377,1.561,1.561,0,0,0,.424-.581,1.916,1.916,0,0,0,.143-.746,1.481,1.481,0,0,0-.548-1.253,2.655,2.655,0,0,0-1.632-.422h-1.375Z" transform="translate(-259.778 -782.468)" fill="#fff"/>
    </g>
  </g>
</svg>
