<svg xmlns="http://www.w3.org/2000/svg" width="126.314" height="126.314" viewBox="0 0 126.314 126.314">
  <g id="グループ_1" data-name="グループ 1" transform="translate(0 0)">
    <path id="パス_1" data-name="パス 1" d="M169.394,778.943q-3.1,0-6.189.3t-6.132.91q-3.043.606-6.011,1.507t-5.837,2.088q-2.866,1.188-5.6,2.648t-5.315,3.188q-2.58,1.724-4.98,3.692t-4.592,4.16q-2.191,2.194-4.16,4.595t-3.692,4.978q-1.724,2.58-3.188,5.315t-2.648,5.6q-1.188,2.869-2.088,5.836t-1.507,6.011q-.606,3.043-.91,6.132t-.3,6.189q0,3.1.3,6.192t.91,6.13q.606,3.043,1.507,6.014t2.088,5.834q1.188,2.87,2.648,5.6t3.188,5.317q1.724,2.58,3.692,4.978t4.16,4.592q2.194,2.194,4.592,4.163t4.98,3.692q2.58,1.724,5.315,3.186t5.6,2.651q2.869,1.187,5.837,2.088t6.011,1.507q3.043.605,6.132.907t6.189.306q3.1,0,6.191-.306t6.13-.907q3.043-.606,6.014-1.507t5.834-2.088q2.866-1.188,5.6-2.651t5.317-3.186q2.58-1.724,4.978-3.692t4.592-4.163q2.194-2.195,4.163-4.592t3.692-4.978q1.724-2.58,3.186-5.317t2.651-5.6q1.188-2.866,2.088-5.834t1.507-6.014q.606-3.043.908-6.13t.306-6.192q0-3.1-.306-6.189t-.908-6.132q-.606-3.043-1.507-6.011t-2.088-5.836q-1.188-2.866-2.651-5.6t-3.186-5.315q-1.724-2.58-3.692-4.978t-4.163-4.595q-2.194-2.191-4.592-4.16t-4.978-3.692q-2.58-1.724-5.317-3.188t-5.6-2.648q-2.866-1.188-5.834-2.088t-6.014-1.507q-3.043-.605-6.13-.91T169.394,778.943Z" transform="translate(-106.238 -778.943)" fill="#fff"/>
    <path id="パス_2" data-name="パス 2" d="M179.376,838.838,127.8,807.952l6.034-9.842,51.571,30.88Z" transform="translate(-72.359 -748.828)" fill="#907452"/>
    <path id="パス_3" data-name="パス 3" d="M139.4,789.814l-4.032,6.58,0-.005-4.924-2.939-6.042,9.858,4.916,2.939.015-.005-18.142,29.615a54.172,54.172,0,0,0,41.118,6.014,15.189,15.189,0,0,1-5.045-21.025l11.8-19.255Z" transform="translate(-98.453 -761.863)" fill="#907452"/>
  </g>
</svg>
